<svg width="102" height="103" viewBox="0 0 102 103" fill="none" xmlns="http://www.w3.org/2000/svg">
<path fill-rule="evenodd" clip-rule="evenodd" d="M0.875183 51.5032C0.875183 23.5466 23.5099 0.87883 51.4355 0.87883C79.3612 0.87883 102 23.5445 102 51.5032C102 79.4619 79.3612 102.132 51.4355 102.132C23.5099 102.132 0.875183 79.466 0.875183 51.5032Z" fill="#002553"/>
<path fill-rule="evenodd" clip-rule="evenodd" d="M63.7296 37.2886L63.7395 37.4823C64.2064 39.0202 64.4547 40.6261 64.4547 42.2832C64.4547 47.6023 61.892 52.4165 57.7499 55.9113L57.7433 55.9179L57.74 55.9245L57.7334 55.9312L57.7234 55.9378L57.7102 55.9477L57.697 55.9609L57.6837 55.9742L57.6672 55.9874L57.6506 56.0007L57.6308 56.0205L57.6109 56.0338L57.5943 56.0503L57.5778 56.0636L57.5612 56.0768L57.548 56.0934C53.5152 59.7885 56.265 66.3939 57.0811 66.5578C57.0811 66.5578 59.076 62.8991 61.0692 61.9025C63.0624 60.9059 72.027 57.0801 71.3631 50.4316C70.6993 43.7814 67.7111 39.79 63.7263 37.2935L63.7296 37.2886Z" fill="#E5A812"/>
<path fill-rule="evenodd" clip-rule="evenodd" d="M58.5413 31.4331C58.4568 32.0258 58.3442 32.6135 58.2085 33.1962C57.8641 36.2357 56.3411 39.9854 52.1891 44.6307C46.8054 50.6534 46.1084 55.908 46.6995 59.5964C47.3832 62.2138 48.7308 64.5878 50.3813 66.0595C49.0304 62.6707 50.6197 58.9342 52.848 55.4974C53.7602 54.0886 54.7816 52.7311 55.7534 51.4679C57.495 48.6403 59.4799 44.5496 60.0478 39.9357C60.1537 37.4276 59.8027 34.7424 58.7382 31.9662L58.5413 31.4314V31.4331Z" fill="#E5A812"/>
<path fill-rule="evenodd" clip-rule="evenodd" d="M54.0896 33.0588C54.6343 31.9297 55.073 30.8371 55.3627 29.8123C55.4339 29.5607 55.4985 29.3091 55.5531 29.0541C55.6723 28.5062 55.7435 27.9814 55.7567 27.4814C55.8213 25.1538 55.5928 11.6846 46.1267 14.3467C46.1267 14.3467 54.1376 14.7953 51.1081 24.6538C48.451 33.3005 31.017 41.28 33.674 53.2492C36.3311 65.2202 43.9679 64.8874 43.9679 64.8874L43.9298 64.7715C42.9018 62.6243 41.68 58.8432 42.3985 53.8585C42.5045 52.4563 42.7793 51.0855 43.2974 49.8637C43.4845 49.3158 43.6964 48.7811 43.9398 48.2579C45.3072 44.879 47.5951 41.1393 51.2389 37.123C52.4325 35.8069 53.3728 34.4477 54.0913 33.0571L54.0896 33.0588Z" fill="#E5A812"/>
<path fill-rule="evenodd" clip-rule="evenodd" d="M35.1689 68.5461H69.7059C70.8052 68.5461 71.6975 69.4384 71.6975 70.5409C71.6975 71.6435 70.8052 72.5358 69.7059 72.5358H35.1689C34.0664 72.5358 33.1774 71.6435 33.1774 70.5409C33.1774 69.4384 34.068 68.5461 35.1689 68.5461Z" fill="#93AF2A"/>
<path fill-rule="evenodd" clip-rule="evenodd" d="M37.4932 75.8617H67.0489C68.1481 75.8617 69.0404 76.754 69.0404 77.8566C69.0404 78.9592 68.1481 79.8515 67.0489 79.8515H37.4932C36.3907 79.8515 35.5017 78.9592 35.5017 77.8566C35.5017 76.754 36.3923 75.8617 37.4932 75.8617Z" fill="#93AF2A"/>
<path fill-rule="evenodd" clip-rule="evenodd" d="M42.4746 82.5118H62.4019C63.5011 82.5118 64.3951 83.4042 64.3951 84.5067C64.3951 85.6093 63.5028 86.5016 62.4019 86.5016H42.4746C41.3754 86.5016 40.4831 85.6093 40.4831 84.5067C40.4831 83.4042 41.3754 82.5118 42.4746 82.5118Z" fill="#93AF2A"/>
</svg>
